# xmcd
#
# Track frame offsets:
# 150
# 14704
# 34144
# 47859
# 64484
# 80238
# 92135
# 105651
# 110878
# 123346
# 143196
# 157518
# 169712
# 186390
#
# Disc length: 2785 seconds
#
# Revision: 1
# Processed by: cddbd v1.5.2PL0 Copyright (c) Steve Scherf et al.
# Submitted via: CedeCatalogueitor 2.6.0.6 http://personales.ya.com/cdcatalogueitor
#
DISCID=c90adf0e
DTITLE=Martin - La Vida En General
DYEAR=1900
DGENRE=
TTITLE0=Mi Día Normal
TTITLE1=Electricidad
TTITLE2=Una Pequeña Estrella Pasa De Largo
TTITLE3=El Laborismo
TTITLE4=Distante
TTITLE5=Excursión Al Campo El Viernes
TTITLE6=Anarquismo Y El Movimiento De La Clase Trabajadora
TTITLE7=Diferente Para Mi
TTITLE8=Accidente
TTITLE9=Conrianza
TTITLE10=El Túnel Del Tiempo
TTITLE11=Una Chica En Invierno
TTITLE12=Cosmonauta
TTITLE13=Yo Sólo Estaba
EXTD=
EXTT0=
EXTT1=
EXTT2=
EXTT3=
EXTT4=
EXTT5=
EXTT6=
EXTT7=
EXTT8=
EXTT9=
EXTT10=
EXTT11=
EXTT12=
EXTT13=
PLAYORDER=
